<svg width="23" height="23" viewBox="0 0 23 23" fill="none" xmlns="http://www.w3.org/2000/svg">
<path d="M15.1926 3.29107L13.8876 4.00479L15.1926 4.7185L15.9063 6.02349L16.62 4.7185L17.925 4.00479L16.62 3.29107L15.9063 1.98608L15.1926 3.29107ZM10.2285 4.03494C9.03167 4.27779 7.91471 4.8166 6.97964 5.60216C6.04458 6.38773 5.32121 7.39502 4.87558 8.53206C4.42994 9.66911 4.27625 10.8997 4.42854 12.1114C4.58082 13.3231 5.03423 14.4774 5.74736 15.4688C6.46049 16.4602 7.41061 17.2572 8.51098 17.7869C9.61135 18.3167 10.8269 18.5624 12.0466 18.5015C13.2664 18.4406 14.4514 18.0752 15.4936 17.4385C16.5358 16.8019 17.4018 15.9143 18.0127 14.8568C15.8425 14.8399 13.7669 13.9659 12.2383 12.4253C10.7097 10.8847 9.85196 8.80239 9.85202 6.63211C9.85202 5.73654 9.97174 4.86198 10.2285 4.03494ZM2.5412 11.2014C2.5412 6.15417 6.63252 2.06285 11.6797 2.06285H13.2643L12.4711 3.43363C11.942 4.34748 11.6797 5.43496 11.6797 6.63211C11.6796 7.57669 11.8886 8.50957 12.2919 9.36376C12.6951 10.2179 13.2824 10.9722 14.0118 11.5725C14.7411 12.1727 15.5944 12.6039 16.5102 12.8352C17.426 13.0666 18.3817 13.0922 19.3086 12.9103L20.8457 12.6115L20.3494 14.0974C19.1386 17.7235 15.7162 20.3399 11.6797 20.3399C6.63252 20.3399 2.5412 16.2486 2.5412 11.2014ZM19.4475 6.09842L20.2827 7.62456L21.8089 8.45982L20.2827 9.29508L19.4475 10.8212L18.6122 9.29508L17.0861 8.45982L18.6122 7.62456L19.4475 6.09842Z" fill="white"/>
</svg>
