<svg width="30" height="30" viewBox="0 0 30 30" fill="none" xmlns="http://www.w3.org/2000/svg">
<rect x="30" width="30" height="30" rx="15" transform="rotate(90 30 0)" fill="white"/>
<path fill-rule="evenodd" clip-rule="evenodd" d="M6.66388 15.2158C6.66388 19.4774 9.75368 22.381 13.2243 22.9816C13.3187 22.998 13.4089 23.0328 13.4899 23.084C13.5709 23.1353 13.6409 23.202 13.6961 23.2803C13.7513 23.3586 13.7905 23.447 13.8115 23.5405C13.8325 23.634 13.8349 23.7307 13.8186 23.8251C13.8022 23.9195 13.7674 24.0098 13.7162 24.0908C13.6649 24.1717 13.5982 24.2418 13.5199 24.297C13.4416 24.3522 13.3532 24.3914 13.2597 24.4124C13.1662 24.4334 13.0695 24.4358 12.9751 24.4194C8.89968 23.7138 5.20508 20.2782 5.20508 15.2158C5.20508 13.064 6.18368 11.3728 7.32608 10.0876C8.14508 9.16642 9.08168 8.41742 9.83488 7.84482H7.54448C7.35883 7.84482 7.18078 7.77107 7.0495 7.6398C6.91823 7.50852 6.84448 7.33048 6.84448 7.14482C6.84448 6.95917 6.91823 6.78113 7.0495 6.64985C7.18078 6.51857 7.35883 6.44482 7.54448 6.44482H11.7445C11.9301 6.44482 12.1082 6.51857 12.2395 6.64985C12.3707 6.78113 12.4445 6.95917 12.4445 7.14482V11.3448C12.4445 11.5305 12.3707 11.7085 12.2395 11.8398C12.1082 11.9711 11.9301 12.0448 11.7445 12.0448C11.5588 12.0448 11.3808 11.9711 11.2495 11.8398C11.1182 11.7085 11.0445 11.5305 11.0445 11.3448V8.76042L11.0431 8.76322C10.2423 9.36522 9.26508 10.103 8.41808 11.0564C7.41708 12.182 6.66388 13.5442 6.66388 15.2158ZM22.2151 15.7828C22.2151 11.566 19.1911 8.68062 15.7653 8.03662C15.6698 8.02042 15.5785 7.98537 15.4967 7.93351C15.4149 7.88165 15.3443 7.81402 15.2889 7.73457C15.2335 7.65511 15.1945 7.56543 15.1742 7.47074C15.1538 7.37606 15.1525 7.27827 15.1704 7.18308C15.1882 7.08789 15.2249 6.99721 15.2781 6.91633C15.3314 6.83545 15.4002 6.76598 15.4806 6.71199C15.561 6.65799 15.6514 6.62055 15.7464 6.60184C15.8414 6.58313 15.9392 6.58353 16.0341 6.60302C20.0577 7.35902 23.6739 10.775 23.6739 15.7828C23.6739 17.9346 22.6953 19.6244 21.5529 20.911C20.7339 21.8322 19.7973 22.5812 19.0441 23.1538H21.3345C21.5201 23.1538 21.6982 23.2276 21.8295 23.3589C21.9607 23.4901 22.0345 23.6682 22.0345 23.8538C22.0345 24.0395 21.9607 24.2175 21.8295 24.3488C21.6982 24.4801 21.5201 24.5538 21.3345 24.5538H17.1345C16.9488 24.5538 16.7708 24.4801 16.6395 24.3488C16.5082 24.2175 16.4345 24.0395 16.4345 23.8538V19.6538C16.4345 19.4682 16.5082 19.2901 16.6395 19.1589C16.7708 19.0276 16.9488 18.9538 17.1345 18.9538C17.3201 18.9538 17.4982 19.0276 17.6295 19.1589C17.7607 19.2901 17.8345 19.4682 17.8345 19.6538V22.2368H17.8373C18.6367 21.632 19.6153 20.8956 20.4609 19.9408C21.4619 18.8166 22.2151 17.4558 22.2151 15.7828Z" fill="#0587FF"/>
</svg>
