<svg width="20" height="20" viewBox="0 0 20 20" fill="none" xmlns="http://www.w3.org/2000/svg">
<path d="M13.1926 2.29107L11.8876 3.00479L13.1926 3.7185L13.9063 5.02349L14.62 3.7185L15.925 3.00479L14.62 2.29107L13.9063 0.986084L13.1926 2.29107ZM8.22853 3.03494C7.03167 3.27779 5.91471 3.8166 4.97964 4.60216C4.04458 5.38773 3.32121 6.39502 2.87558 7.53206C2.42994 8.66911 2.27625 9.89967 2.42854 11.1114C2.58082 12.3231 3.03423 13.4774 3.74736 14.4688C4.46049 15.4602 5.41061 16.2572 6.51098 16.7869C7.61135 17.3167 8.8269 17.5624 10.0466 17.5015C11.2664 17.4406 12.4514 17.0752 13.4936 16.4385C14.5358 15.8019 15.4018 14.9143 16.0127 13.8568C13.8425 13.8399 11.7669 12.9659 10.2383 11.4253C8.70969 9.88474 7.85196 7.80239 7.85202 5.63211C7.85202 4.73654 7.97174 3.86198 8.22853 3.03494ZM0.541199 10.2014C0.541199 5.15417 4.63252 1.06285 9.67973 1.06285H11.2643L10.4711 2.43363C9.942 3.34748 9.67973 4.43496 9.67973 5.63211C9.67959 6.57669 9.88864 7.50957 10.2919 8.36376C10.6951 9.21794 11.2824 9.97224 12.0118 10.5725C12.7411 11.1727 13.5944 11.6039 14.5102 11.8352C15.426 12.0666 16.3817 12.0922 17.3086 11.9103L18.8457 11.6115L18.3494 13.0974C17.1386 16.7235 13.7162 19.3399 9.67973 19.3399C4.63252 19.3399 0.541199 15.2486 0.541199 10.2014ZM17.4475 5.09842L18.2827 6.62456L19.8089 7.45982L18.2827 8.29508L17.4475 9.82121L16.6122 8.29508L15.0861 7.45982L16.6122 6.62456L17.4475 5.09842Z" fill="white"/>
</svg>
