<svg width="20" height="20" viewBox="0 0 20 20" fill="none" xmlns="http://www.w3.org/2000/svg">
<g clip-path="url(#clip0_38_10134)">
<path d="M18.3333 10.5555C18.2602 10.556 18.1877 10.5419 18.12 10.5143C18.0523 10.4867 17.9908 10.4459 17.9389 10.3944L9.99997 2.44998L2.06109 10.3944C1.95481 10.4854 1.8181 10.533 1.67828 10.5276C1.53846 10.5222 1.40583 10.4642 1.30688 10.3653C1.20794 10.2664 1.14998 10.1337 1.14458 9.9939C1.13918 9.85408 1.18674 9.71737 1.27775 9.6111L9.61108 1.27776C9.71517 1.17429 9.85598 1.11621 10.0028 1.11621C10.1495 1.11621 10.2903 1.17429 10.3944 1.27776L18.7278 9.6111C18.8042 9.68909 18.856 9.78788 18.8766 9.89513C18.8972 10.0024 18.8857 10.1133 18.8437 10.2141C18.8016 10.3149 18.7307 10.401 18.6399 10.4617C18.5492 10.5225 18.4425 10.5551 18.3333 10.5555Z" fill="#151515"/>
<path d="M10 4.32788L3.33337 11.0168V17.7779C3.33337 18.0726 3.45044 18.3552 3.65881 18.5636C3.86718 18.7719 4.1498 18.889 4.44449 18.889H8.33337V13.3334H11.6667V18.889H15.5556C15.8503 18.889 16.1329 18.7719 16.3413 18.5636C16.5496 18.3552 16.6667 18.0726 16.6667 17.7779V10.9779L10 4.32788Z" fill="#151515"/>
</g>
<defs>
<clipPath id="clip0_38_10134">
<rect width="20" height="20" fill="white"/>
</clipPath>
</defs>
</svg>
