<svg width="20" height="20" viewBox="0 0 20 20" fill="none" xmlns="http://www.w3.org/2000/svg">
<g clip-path="url(#clip0_38_5910)">
<path d="M18.3334 10.5555C18.2603 10.556 18.1878 10.5419 18.1201 10.5143C18.0525 10.4867 17.9909 10.4459 17.939 10.3944L10.0001 2.44998L2.06121 10.3944C1.95493 10.4854 1.81822 10.533 1.6784 10.5276C1.53858 10.5222 1.40595 10.4642 1.30701 10.3653C1.20806 10.2664 1.1501 10.1337 1.1447 9.9939C1.1393 9.85408 1.18686 9.71737 1.27787 9.6111L9.61121 1.27776C9.7153 1.17429 9.8561 1.11621 10.0029 1.11621C10.1496 1.11621 10.2904 1.17429 10.3945 1.27776L18.7279 9.6111C18.8043 9.68909 18.8561 9.78788 18.8767 9.89513C18.8973 10.0024 18.8859 10.1133 18.8438 10.2141C18.8017 10.3149 18.7308 10.401 18.6401 10.4617C18.5493 10.5225 18.4426 10.5551 18.3334 10.5555Z" fill="white" fill-opacity="0.6"/>
<path d="M9.99992 4.32788L3.33325 11.0168V17.7779C3.33325 18.0726 3.45032 18.3552 3.65869 18.5636C3.86706 18.7719 4.14968 18.889 4.44436 18.889H8.33325V13.3334H11.6666V18.889H15.5555C15.8502 18.889 16.1328 18.7719 16.3411 18.5636C16.5495 18.3552 16.6666 18.0726 16.6666 17.7779V10.9779L9.99992 4.32788Z" fill="white" fill-opacity="0.6"/>
</g>
<defs>
<clipPath id="clip0_38_5910">
<rect width="20" height="20" fill="white"/>
</clipPath>
</defs>
</svg>
