<svg width="30" height="30" viewBox="0 0 30 30" fill="none" xmlns="http://www.w3.org/2000/svg">
<circle cx="15" cy="15" r="15" fill="#F5DE19"/>
<path d="M16.3802 17.7164C16.5766 18.1144 16.8812 18.4489 17.2591 18.6815C17.637 18.9141 18.0729 19.0354 18.5166 19.0314C19.4139 19.0314 19.9873 18.5827 19.9873 17.9632C19.9873 17.2209 19.3981 16.9577 18.4109 16.5255L17.8692 16.2932C16.3068 15.6275 15.2684 14.7935 15.2684 13.0305C15.2684 11.406 16.5062 10.1701 18.44 10.1701C19.0677 10.1246 19.6948 10.2651 20.2431 10.574C20.7913 10.883 21.2363 11.3467 21.5225 11.9072L19.836 12.99C19.7256 12.7122 19.5333 12.4746 19.2846 12.3088C19.0359 12.143 18.7427 12.0568 18.4438 12.0616C18.3136 12.0485 18.182 12.0627 18.0575 12.1033C17.933 12.1438 17.8184 12.2099 17.7209 12.2972C17.6233 12.3846 17.5451 12.4913 17.4911 12.6106C17.4371 12.7298 17.4086 12.859 17.4073 12.99C17.4073 13.6398 17.8098 13.9025 18.7362 14.3049L19.2779 14.5365C21.1181 15.3257 22.1565 16.13 22.1565 17.9385C22.1565 19.8882 20.6251 20.9564 18.5679 20.9564C17.7665 21.0074 16.9675 20.8254 16.2673 20.4324C15.5671 20.0394 14.9956 19.4522 14.6216 18.7416L16.3802 17.7164ZM8.73079 17.9063C9.07124 18.51 9.38069 19.02 10.123 19.02C10.8343 19.02 11.2836 18.7416 11.2836 17.6595V10.2967H13.449V17.6898C13.449 19.9319 12.1341 20.9526 10.2154 20.9526C9.53762 20.9893 8.86464 20.82 8.28497 20.4669C7.7053 20.1138 7.2461 19.5935 6.96777 18.9745L8.73079 17.9063Z" fill="white"/>
</svg>
