<svg width="30" height="30" viewBox="0 0 30 30" fill="none" xmlns="http://www.w3.org/2000/svg">
<circle cx="15" cy="15" r="15" fill="#546EEB"/>
<path d="M6.31397 18.6581H7.63866C7.66727 18.6584 7.69502 18.6483 7.71674 18.6297C7.73847 18.6111 7.7527 18.5852 7.75678 18.5569L8.05209 17.0213H9.08147C9.51237 17.0321 9.9423 16.9751 10.3555 16.8525C10.6903 16.7418 10.996 16.5572 11.2499 16.3125C11.4779 16.1075 11.6691 15.8649 11.8152 15.5953C11.9597 15.3316 12.0622 15.0469 12.119 14.7516C12.2086 14.442 12.224 14.1156 12.1639 13.799C12.1038 13.4823 11.9699 13.1843 11.773 12.9291C11.5449 12.6973 11.2689 12.5183 10.9642 12.4046C10.6596 12.2909 10.3338 12.2453 10.0096 12.271H7.47834C7.44798 12.2723 7.41897 12.2839 7.396 12.3038C7.37303 12.3237 7.35745 12.3508 7.35178 12.3806L6.18741 18.5063C6.17451 18.5417 6.17451 18.5805 6.18741 18.616C6.20351 18.6327 6.22344 18.6453 6.24549 18.6527C6.26753 18.66 6.29103 18.6619 6.31397 18.6581ZM8.71866 13.4606H9.56241C9.72293 13.4391 9.88614 13.4496 10.0426 13.4916C10.199 13.5336 10.3455 13.6063 10.4737 13.7053C10.6171 13.8572 10.6424 14.1441 10.5665 14.5491C10.5242 14.9114 10.3536 15.2466 10.0855 15.4941C9.75136 15.7057 9.35766 15.8033 8.96334 15.7725H8.28834L8.71866 13.4606ZM16.9874 12.6591C16.5306 12.3233 15.965 12.1698 15.4012 12.2288H14.3971L14.6755 10.7438C14.6838 10.7267 14.688 10.7079 14.688 10.6889C14.688 10.6699 14.6838 10.6512 14.6755 10.6341C14.6456 10.6231 14.6127 10.6231 14.5827 10.6341H13.258C13.2294 10.6338 13.2017 10.6439 13.1799 10.6625C13.1582 10.6811 13.144 10.707 13.1399 10.7353L11.9755 16.8694C11.9674 16.885 11.9632 16.9024 11.9632 16.92C11.9632 16.9376 11.9674 16.955 11.9755 16.9706C11.9855 16.9862 11.9992 16.999 12.0154 17.0079C12.0317 17.0167 12.0499 17.0213 12.0683 17.0213H13.3677C13.3976 17.0213 13.4265 17.0101 13.4484 16.9897C13.4703 16.9693 13.4837 16.9414 13.4858 16.9116L14.1355 13.4775H15.0721C15.4518 13.4775 15.5868 13.5619 15.629 13.6125C15.6633 13.6954 15.681 13.7843 15.681 13.8741C15.681 13.9638 15.6633 14.0527 15.629 14.1356L15.1143 16.8694C15.1061 16.885 15.1019 16.9024 15.1019 16.92C15.1019 16.9376 15.1061 16.955 15.1143 16.9706C15.1248 16.9857 15.1386 16.9981 15.1547 17.0069C15.1708 17.0157 15.1888 17.0206 15.2071 17.0213H16.5233C16.5537 17.0199 16.5827 17.0083 16.6057 16.9884C16.6287 16.9685 16.6442 16.9414 16.6499 16.9116L17.1899 14.0428C17.277 13.8141 17.3042 13.5668 17.2687 13.3246C17.2333 13.0824 17.1364 12.8533 16.9874 12.6591ZM20.8012 12.2288H18.1602C18.1447 12.2276 18.1291 12.2296 18.1143 12.2344C18.0996 12.2393 18.0859 12.2471 18.0741 12.2573C18.0624 12.2675 18.0527 12.2799 18.0458 12.2938C18.0389 12.3078 18.0347 12.3229 18.0337 12.3385L16.8018 18.5063C16.7941 18.5235 16.7901 18.5422 16.7901 18.5611C16.7901 18.58 16.7941 18.5987 16.8018 18.616C16.8131 18.6295 16.8273 18.6403 16.8434 18.6476C16.8595 18.6549 16.877 18.6585 16.8946 18.6581H18.2699C18.2999 18.6606 18.3298 18.6515 18.3533 18.6326C18.3768 18.6138 18.3923 18.5867 18.3965 18.5569L18.7087 17.0213H19.7802C20.2249 17.031 20.6686 16.9742 21.0965 16.8525C21.4649 16.75 21.8053 16.5654 22.0921 16.3125C22.3276 16.1081 22.5273 15.8657 22.6827 15.5953C22.8299 15.332 22.9352 15.0473 22.9949 14.7516C23.0869 14.4417 23.1027 14.1142 23.041 13.7969C22.9793 13.4796 22.8419 13.1819 22.6405 12.9291C22.402 12.6874 22.1143 12.4999 21.7969 12.379C21.4796 12.2582 21.14 12.207 20.8012 12.2288ZM21.3243 14.566C21.2738 14.9313 21.0942 15.2665 20.818 15.511C20.4718 15.7235 20.0671 15.821 19.6621 15.7894H18.9871L19.4427 13.4606H20.2865C20.6237 13.4193 20.9642 13.5067 21.2399 13.7053C21.3749 13.8572 21.3749 14.1441 21.3243 14.566Z" fill="white"/>
</svg>
