<svg width="41" height="23" viewBox="0 0 41 23" fill="none" xmlns="http://www.w3.org/2000/svg">
<path d="M39.7133 1.30014L39.7132 1.30019C40.0564 1.64317 40.25 2.10132 40.25 2.58021C40.25 3.0591 40.0564 3.51726 39.7132 3.86024L21.8917 21.6808C21.7111 21.8615 21.4945 22.0046 21.2554 22.1022C21.0163 22.1998 20.7594 22.25 20.5 22.25C20.2406 22.25 19.9837 22.1998 19.7446 22.1022C19.5056 22.0046 19.2889 21.8615 19.1083 21.6808L1.28676 3.86024C1.28674 3.86022 1.28673 3.86021 1.28671 3.86019C0.943567 3.51722 0.750002 3.05908 0.750002 2.58021C0.750002 2.10132 0.943586 1.64317 1.28676 1.30019L1.29098 1.29597L1.29103 1.29602L1.30893 1.27896C1.47664 1.1114 1.67756 0.978573 1.89923 0.887904C2.12192 0.796818 2.3613 0.750001 2.60292 0.750001C2.84455 0.750001 3.08393 0.796818 3.30662 0.887904C3.52923 0.978957 3.7309 1.11252 3.89904 1.28109L39.7133 1.30014ZM39.7133 1.30014L39.709 1.29603M39.7133 1.30014L39.709 1.29603M20.4967 17.8856L37.1007 1.28131L20.4967 17.8856ZM20.4967 17.8856L3.89926 1.28131L20.4967 17.8856ZM39.709 1.29603L39.6911 1.27895M39.709 1.29603L39.6911 1.27895M39.6911 1.27895C39.5234 1.11139 39.3224 0.978575 39.1008 0.887907C38.8781 0.796821 38.6387 0.750004 38.3971 0.750004C38.1555 0.750004 37.9161 0.796821 37.6934 0.887907C37.4708 0.978954 37.2691 1.1125 37.101 1.28106L39.6911 1.27895Z" fill="#0587FF" stroke="#0587FF" stroke-width="0.5"/>
</svg>
