<svg width="30" height="30" viewBox="0 0 30 30" fill="none" xmlns="http://www.w3.org/2000/svg">
<circle cx="15" cy="15" r="15" fill="#E9EFFF"/>
<path d="M15.1124 1.87495C9.93741 1.87495 5.08116 4.91245 2.84991 9.74995H9.13116V10.4437C7.19991 10.2187 7.36866 11.2125 7.64991 12.2625L11.7749 22.5375L14.7937 15.4687L13.4062 12.15C12.8999 11.2687 12.8999 10.275 10.8187 10.3687L10.8562 9.7312H20.0624V10.4625C18.9937 10.5187 17.6812 10.2 18.3749 12.3937L22.1062 22.125L24.1499 16.4437C24.8249 14.0625 24.1874 11.775 23.3999 9.52495C22.9687 8.02495 23.1562 6.7687 25.1437 6.26245C22.1249 3.2062 18.5812 1.8562 15.1499 1.8562L15.1124 1.87495ZM27.6374 10.8562L21.6749 26.3437C23.3249 24.9187 25.0124 24.4125 27.0749 20.475C28.4437 17.2125 28.3124 14.175 27.6374 10.8562ZM2.23116 11.1C1.64991 15.675 1.70616 17.0062 3.14991 20.7375C5.02491 24.3187 6.48741 25.0687 8.54991 26.475L2.23116 11.1187V11.1ZM15.3562 16.8937L10.9312 27.5062C14.0437 28.3875 16.8187 28.275 19.3499 27.3L15.3562 16.8937Z" fill="#0587FF"/>
</svg>
